<svg width="559" height="559" viewBox="0 0 559 559" fill="none" xmlns="http://www.w3.org/2000/svg">
<mask id="path-1-inside-1_56_20" fill="white">
<path fill-rule="evenodd" clip-rule="evenodd" d="M559 280.474C559 424.131 451.372 542.563 312.617 559L448.851 248.913L353.6 277.152L341.125 345.209L284.365 511.28L281.868 518.466L281.069 511.28L263.126 348.213L262.76 304.013L206.452 320.041L211.493 370.098L162.423 511.28L159.692 519.382L158.761 511.28L143.014 376.301V338.357L86.6204 354.689L107.026 501.195C41.8608 449.846 0 370.066 0 280.474C0 125.573 125.136 0 279.5 0C433.864 0 559 125.573 559 280.474ZM225.042 460.214L238.699 557.981C222.562 555.613 206.872 551.861 191.753 546.848L221.746 460.214L224.036 453.444L225.042 460.214ZM389.535 112.983L364.459 73.5282L348.504 117.501L303.361 129.24L340.106 158.055L337.282 204.766L375.946 178.602L419.344 195.731L406.495 150.746L436.14 114.622L389.535 112.983Z"/>
</mask>
<path fill-rule="evenodd" clip-rule="evenodd" d="M559 280.474C559 424.131 451.372 542.563 312.617 559L448.851 248.913L353.6 277.152L341.125 345.209L284.365 511.28L281.868 518.466L281.069 511.28L263.126 348.213L262.76 304.013L206.452 320.041L211.493 370.098L162.423 511.28L159.692 519.382L158.761 511.28L143.014 376.301V338.357L86.6204 354.689L107.026 501.195C41.8608 449.846 0 370.066 0 280.474C0 125.573 125.136 0 279.5 0C433.864 0 559 125.573 559 280.474ZM225.042 460.214L238.699 557.981C222.562 555.613 206.872 551.861 191.753 546.848L221.746 460.214L224.036 453.444L225.042 460.214ZM389.535 112.983L364.459 73.5282L348.504 117.501L303.361 129.24L340.106 158.055L337.282 204.766L375.946 178.602L419.344 195.731L406.495 150.746L436.14 114.622L389.535 112.983Z" fill="#FDD737"/>
<path d="M312.617 559L298.956 552.998L288.461 576.887L314.373 573.818L312.617 559ZM448.851 248.913L462.512 254.914L475.451 225.463L444.61 234.607L448.851 248.913ZM353.6 277.152L349.359 262.847L340.575 265.451L338.924 274.462L353.6 277.152ZM341.125 345.209L355.244 350.035L355.602 348.988L355.802 347.9L341.125 345.209ZM284.365 511.28L298.46 516.177L298.472 516.141L298.484 516.105L284.365 511.28ZM281.868 518.466L267.038 520.114L295.963 523.364L281.868 518.466ZM281.069 511.28L266.238 512.912L266.239 512.92L266.239 512.928L281.069 511.28ZM263.126 348.213L248.205 348.337L248.211 349.093L248.294 349.845L263.126 348.213ZM262.76 304.013L277.68 303.89L277.518 284.299L258.675 289.662L262.76 304.013ZM206.452 320.041L202.367 305.689L190.355 309.109L191.606 321.535L206.452 320.041ZM211.493 370.098L225.587 374.997L226.669 371.883L226.339 368.603L211.493 370.098ZM162.423 511.28L148.328 506.381L148.305 506.447L148.283 506.514L162.423 511.28ZM159.692 519.382L144.868 521.085L173.831 524.148L159.692 519.382ZM158.761 511.28L173.584 509.576L173.583 509.563L173.581 509.551L158.761 511.28ZM143.014 376.301H128.093V377.168L128.194 378.03L143.014 376.301ZM143.014 338.357H157.935V318.501L138.864 324.024L143.014 338.357ZM86.6204 354.689L82.4697 340.356L70.0596 343.95L71.8419 356.747L86.6204 354.689ZM107.026 501.195L97.791 512.915L126.92 535.868L121.804 499.136L107.026 501.195ZM238.699 557.981L236.533 572.744L256.232 575.636L253.477 555.917L238.699 557.981ZM225.042 460.214L239.819 458.15L239.81 458.086L239.801 458.022L225.042 460.214ZM191.753 546.848L177.653 541.967L172.707 556.254L187.058 561.011L191.753 546.848ZM221.746 460.214L235.846 465.096L235.863 465.045L235.88 464.995L221.746 460.214ZM224.036 453.444L238.795 451.252L209.902 448.662L224.036 453.444ZM364.459 73.5282L377.052 65.5246L360.779 39.9215L350.432 68.4389L364.459 73.5282ZM389.535 112.983L376.942 120.987L381.157 127.619L389.01 127.895L389.535 112.983ZM348.504 117.501L352.259 131.942L359.854 129.967L362.53 122.59L348.504 117.501ZM303.361 129.24L299.606 114.799L270.438 122.384L294.153 140.982L303.361 129.24ZM340.106 158.055L355 158.956L355.472 151.143L349.313 146.314L340.106 158.055ZM337.282 204.766L322.388 203.866L320.561 234.098L345.644 217.124L337.282 204.766ZM375.946 178.602L381.425 164.723L374.103 161.833L367.584 166.244L375.946 178.602ZM419.344 195.731L413.866 209.611L441.998 220.714L433.691 191.633L419.344 195.731ZM406.495 150.746L394.961 141.281L390 147.325L392.148 154.844L406.495 150.746ZM436.14 114.622L447.675 124.088L466.81 100.77L436.664 99.71L436.14 114.622ZM314.373 573.818C460.588 556.497 573.921 431.742 573.921 280.474H544.079C544.079 416.521 442.156 528.629 310.862 544.182L314.373 573.818ZM435.19 242.911L298.956 552.998L326.278 565.002L462.512 254.914L435.19 242.911ZM357.842 291.458L453.092 263.218L444.61 234.607L349.359 262.847L357.842 291.458ZM355.802 347.9L368.277 279.843L338.924 274.462L326.448 342.519L355.802 347.9ZM298.484 516.105L355.244 350.035L327.006 340.383L270.246 506.454L298.484 516.105ZM295.963 523.364L298.46 516.177L270.271 506.382L267.773 513.569L295.963 523.364ZM266.239 512.928L267.038 520.114L296.698 516.818L295.899 509.632L266.239 512.928ZM248.294 349.845L266.238 512.912L295.901 509.648L277.958 346.581L248.294 349.845ZM247.839 304.137L248.205 348.337L278.047 348.089L277.68 303.89L247.839 304.137ZM210.537 334.392L266.845 318.365L258.675 289.662L202.367 305.689L210.537 334.392ZM226.339 368.603L221.298 318.546L191.606 321.535L196.646 371.593L226.339 368.603ZM176.517 516.178L225.587 374.997L197.398 365.2L148.328 506.381L176.517 516.178ZM173.831 524.148L176.562 516.045L148.283 506.514L145.552 514.616L173.831 524.148ZM143.937 512.983L144.868 521.085L174.515 517.678L173.584 509.576L143.937 512.983ZM128.194 378.03L143.94 513.009L173.581 509.551L157.835 374.572L128.194 378.03ZM128.093 338.357V376.301H157.935V338.357H128.093ZM90.7711 369.021L147.165 352.689L138.864 324.024L82.4697 340.356L90.7711 369.021ZM121.804 499.136L101.399 352.63L71.8419 356.747L92.2474 503.253L121.804 499.136ZM-14.9212 280.474C-14.9212 374.819 29.1804 458.852 97.791 512.915L116.261 489.475C54.5412 440.841 14.9212 365.313 14.9212 280.474H-14.9212ZM279.5 -14.9212C116.847 -14.9212 -14.9212 117.381 -14.9212 280.474H14.9212C14.9212 133.764 133.426 14.9212 279.5 14.9212V-14.9212ZM573.921 280.474C573.921 117.381 442.153 -14.9212 279.5 -14.9212V14.9212C425.574 14.9212 544.079 133.764 544.079 280.474H573.921ZM253.477 555.917L239.819 458.15L210.264 462.278L223.922 560.046L253.477 555.917ZM187.058 561.011C202.993 566.294 219.528 570.249 236.533 572.744L240.866 543.218C225.595 540.977 210.751 537.427 196.449 532.685L187.058 561.011ZM207.646 455.333L177.653 541.967L205.853 551.73L235.846 465.096L207.646 455.333ZM209.902 448.662L207.611 455.433L235.88 464.995L238.171 458.225L209.902 448.662ZM239.801 458.022L238.795 451.252L209.277 455.636L210.282 462.406L239.801 458.022ZM351.866 81.5318L376.942 120.987L402.128 104.98L377.052 65.5246L351.866 81.5318ZM362.53 122.59L378.485 78.6175L350.432 68.4389L334.477 112.411L362.53 122.59ZM307.116 143.681L352.259 131.942L344.748 103.06L299.606 114.799L307.116 143.681ZM349.313 146.314L312.569 117.499L294.153 140.982L330.898 169.797L349.313 146.314ZM352.176 205.666L355 158.956L325.212 157.155L322.388 203.866L352.176 205.666ZM367.584 166.244L328.92 192.408L345.644 217.124L384.309 190.96L367.584 166.244ZM424.822 181.852L381.425 164.723L370.468 192.481L413.866 209.611L424.822 181.852ZM392.148 154.844L404.997 199.829L433.691 191.633L420.843 146.648L392.148 154.844ZM424.606 105.156L394.961 141.281L418.03 160.212L447.675 124.088L424.606 105.156ZM389.01 127.895L435.616 129.534L436.664 99.71L390.059 98.0713L389.01 127.895Z" fill="#FCBF17" mask="url(#path-1-inside-1_56_20)"/>
</svg>
